HIERARCHY
ROOT Hips
{
	OFFSET 14.658700 -1.743397 44.686901
	CHANNELS 6 Xposition Yposition Zposition Zrotation Xrotation Yrotation
	JOINT Chest
	{
		OFFSET -0.825500 0.895800 5.069500
		CHANNELS 6 Xposition Yposition Zposition Zrotation Xrotation Yrotation
		JOINT Chest2
		{
			OFFSET 0.000000 0.000000 4.622200
			CHANNELS 6 Xposition Yposition Zposition Zrotation Xrotation Yrotation
			JOINT Neck
			{
				OFFSET 0.000000 0.000001 10.755798
				CHANNELS 6 Xposition Yposition Zposition Zrotation Xrotation Yrotation
				JOINT Head
				{
					OFFSET 0.000000 0.000000 2.173897
					CHANNELS 6 Xposition Yposition Zposition Zrotation Xrotation Yrotation
					End Site
					{
						OFFSET 0.000000 0.000001 10.006599
					}
				}
			}
			JOINT LeftCollar
			{
				OFFSET 2.539400 -1.380899 6.761002
				CHANNELS 6 Xposition Yposition Zposition Zrotation Xrotation Yrotation
				JOINT LeftShoulder
				{
					OFFSET 5.407000 0.000000 0.000000
					CHANNELS 6 Xposition Yposition Zposition Zrotation Xrotation Yrotation
					JOINT LeftElbow
					{
						OFFSET 0.000000 -0.000001 -10.687000
						CHANNELS 6 Xposition Yposition Zposition Zrotation Xrotation Yrotation
						JOINT LeftWrist
						{
							OFFSET 0.000000 -0.000001 -13.346901
							CHANNELS 6 Xposition Yposition Zposition Zrotation Xrotation Yrotation
							End Site
							{
								OFFSET 0.000000 -0.000000 -2.173901
							}
						}
					}
				}
			}
			JOINT RightCollar
			{
				OFFSET -2.411400 -2.842699 7.518600
				CHANNELS 6 Xposition Yposition Zposition Zrotation Xrotation Yrotation
				JOINT RightShoulder
				{
					OFFSET -4.245500 0.000000 0.000000
					CHANNELS 6 Xposition Yposition Zposition Zrotation Xrotation Yrotation
					JOINT RightElbow
					{
						OFFSET 0.000000 -0.000001 -10.446701
						CHANNELS 6 Xposition Yposition Zposition Zrotation Xrotation Yrotation
						JOINT RightWrist
						{
							OFFSET 0.000000 -0.000001 -12.218899
							CHANNELS 6 Xposition Yposition Zposition Zrotation Xrotation Yrotation
							End Site
							{
								OFFSET 0.000000 0.000000 -2.173901
							}
						}
					}
				}
			}
		}
	}
	JOINT LeftHip
	{
		OFFSET 2.346700 0.301800 -2.502800
		CHANNELS 6 Xposition Yposition Zposition Zrotation Xrotation Yrotation
		JOINT LeftKnee
		{
			OFFSET 0.000000 -0.000002 -20.597000
			CHANNELS 6 Xposition Yposition Zposition Zrotation Xrotation Yrotation
			JOINT LeftAnkle
			{
				OFFSET 0.000000 -0.000001 -17.157499
				CHANNELS 6 Xposition Yposition Zposition Zrotation Xrotation Yrotation
				End Site
				{
					OFFSET 0.000000 -9.063900 0.000001
				}
			}
		}
	}
	JOINT RightHip
	{
		OFFSET -1.908600 -0.007900 -2.706001
		CHANNELS 6 Xposition Yposition Zposition Zrotation Xrotation Yrotation
		JOINT RightKnee
		{
			OFFSET 0.000000 -0.000002 -20.198500
			CHANNELS 6 Xposition Yposition Zposition Zrotation Xrotation Yrotation
			JOINT RightAnkle
			{
				OFFSET 0.000000 -0.000001 -17.295700
				CHANNELS 6 Xposition Yposition Zposition Zrotation Xrotation Yrotation
				End Site
				{
					OFFSET 0.000000 -8.113500 0.000001
				}
			}
		}
	}
}
MOTION
Frames: 10
Frame Time: 0.041667
-43.549797 4.121911 59.133595 1430.309805 6.327439 -1.993269 -0.825498 0.895802 5.069497 9.049416 -1.543905 -8.254368 0.000001 0.000004 4.622203 5.702873 -2.113145 0.120892 0.000007 0.000004 10.755795 7.021497 -7.047364 28.558057 0.000009 -0.000001 2.173902 -10.629185 -0.963423 -10.878330 2.539405 -1.380898 6.761001 4.848080 2.747229 20.153537 5.407001 0.000004 -0.000006 -84.520046 -31.044098 195.268620 0.000001 0.000006 -10.687003 774.603612 -10.809630 11.667784 0.000001 0.000003 -13.346893 181.046267 376.436751 29.379212 -2.411391 -2.842699 7.518600 208.781480 176.281609 -33.604900 -4.245499 -0.000005 0.000002 -635.336711 -179.091685 -866.156506 0.000001 -0.000010 -10.446697 -7.026434 -21.928973 -24.501675 0.000007 -0.000003 -12.218897 -9.082796 -2.320831 21.848361 2.346697 0.301802 -2.502803 132.036900 -35.164676 57.772014 -0.000004 0.000002 -20.596992 -147.996074 39.930232 105.568476 -0.000006 -0.000000 -17.157494 11.031117 45.325279 79.621612 -1.908602 -0.007901 -2.706002 -477.849761 -30.267430 -48.313449 0.000009 -0.000017 -20.198500 98.225381 68.971462 -45.840299 0.000007 0.000001 -17.295700 340.129596 38.313034 -150.459109
-43.771294 3.921112 58.244095 1430.745188 6.117336 -1.756074 -0.825500 0.895799 5.069499 8.581038 -0.715760 -9.177811 0.000003 0.000001 4.622192 6.525199 -2.214298 0.055878 -0.000000 0.000003 10.755802 6.945915 -7.671587 29.915897 -0.000005 0.000001 2.173908 -10.746898 -0.373946 -11.194388 2.539402 -1.380900 6.761011 3.429606 3.149376 21.101630 5.407000 0.000003 -0.000004 -80.254846 -33.696697 197.733389 -0.000002 0.000013 -10.686997 775.477439 -10.279704 10.154295 -0.000004 0.000007 -13.346892 182.295632 375.720428 29.359681 -2.411399 -2.842698 7.518601 208.159536 175.222370 -32.618036 -4.245504 -0.000001 0.000008 -637.339814 -181.170085 -863.684961 0.000003 -0.000008 -10.446712 -5.549832 -21.014020 -22.949905 0.000000 0.000003 -12.218887 -9.798885 -2.043632 21.927079 2.346695 0.301802 -2.502803 118.102331 -40.227519 48.815318 0.000000 0.000002 -20.597004 -133.469683 47.476198 96.671294 0.000000 0.000003 -17.157499 7.480356 46.003793 67.134749 -1.908600 -0.007899 -2.706005 -461.721170 -35.132321 -38.879383 0.000002 -0.000013 -20.198502 65.209339 65.090801 -21.157669 0.000002 -0.000001 -17.295710 349.594162 37.244253 -150.183142
-43.978500 3.677211 57.192898 1431.246579 5.829908 -1.514507 -0.825492 0.895801 5.069501 8.056648 0.003273 -10.154720 0.000000 0.000002 4.622190 7.375651 -2.282031 -0.006546 0.000011 0.000003 10.755809 6.823374 -8.247364 31.274261 -0.000003 -0.000001 2.173903 -10.800967 0.279961 -11.556921 2.539407 -1.380899 6.761000 2.054872 3.521553 21.958385 5.406996 0.000000 0.000007 -76.419210 -36.508252 200.358108 -0.000000 0.000003 -10.686994 776.495793 -9.749486 8.762021 -0.000004 0.000004 -13.346889 183.355896 374.949600 28.707992 -2.411393 -2.842699 7.518608 207.502199 174.213332 -31.667755 -4.245502 -0.000002 -0.000009 -639.264124 -183.081513 -861.313137 0.000006 0.000004 -10.446704 -4.862310 -19.951365 -21.396563 -0.000006 0.000004 -12.218899 -10.847480 -1.700447 21.948992 2.346705 0.301801 -2.502799 101.930403 -43.690958 38.341533 -0.000000 -0.000004 -20.596994 -115.429254 54.052437 84.865339 -0.000004 0.000003 -17.157495 4.960272 46.738701 53.737866 -1.908595 -0.007898 -2.705996 -444.760308 -37.608490 -28.934348 0.000001 -0.000007 -20.198498 45.820010 58.714854 -9.229404 0.000005 -0.000001 -17.295710 355.033807 36.275268 -150.551467
-44.174995 3.387711 55.984295 1431.889054 5.438131 -1.293728 -0.825506 0.895799 5.069499 7.393856 0.529853 -11.133632 0.000001 0.000002 4.622194 8.167912 -2.293226 -0.067152 0.000002 0.000006 10.755797 6.633823 -8.567647 32.391831 -0.000006 0.000002 2.173904 -10.920579 0.819120 -11.861029 2.539400 -1.380897 6.760990 0.621560 3.841579 22.747643 5.406998 0.000002 0.000008 -72.719480 -39.303374 203.130386 -0.000001 -0.000003 -10.687000 778.172577 -9.158964 7.520530 -0.000002 0.000007 -13.346901 184.267876 374.089051 27.683397 -2.411400 -2.842695 7.518588 206.821885 173.305477 -30.869610 -4.245501 -0.000005 -0.000004 -641.151661 -184.806860 -859.187473 0.000007 -0.000008 -10.446699 -4.759275 -18.900361 -20.179755 0.000006 -0.000008 -12.218888 -11.984175 -1.170223 22.491258 2.346695 0.301801 -2.502788 86.191154 -44.640279 28.433244 -0.000001 -0.000000 -20.596996 -95.707985 58.134103 70.507169 -0.000003 -0.000001 -17.157497 4.192527 46.449152 42.139597 -1.908602 -0.007900 -2.705995 -430.784102 -37.586572 -20.910107 0.000001 -0.000001 -20.198494 34.487985 52.920053 -3.382264 0.000002 0.000005 -17.295710 358.163481 35.571656 -151.041273
-44.365398 3.058508 54.620895 1432.488362 5.017356 -1.069608 -0.825497 0.895802 5.069499 6.768568 0.767172 -12.081252 0.000005 0.000002 4.622195 8.875412 -2.258394 -0.132982 0.000005 0.000003 10.755811 6.308758 -8.656087 33.268253 0.000004 -0.000001 2.173904 -11.015555 1.213349 -12.149196 2.539400 -1.380900 6.760991 -0.916862 4.167936 23.423215 5.406990 0.000001 -0.000002 -69.111378 -42.121643 205.929493 -0.000001 -0.000008 -10.686989 780.010718 -8.671884 6.427734 0.000002 0.000006 -13.346908 185.750874 373.384257 27.499597 -2.411397 -2.842699 7.518591 206.043407 172.403100 -30.210678 -4.245503 -0.000006 -0.000011 -643.141213 -186.431475 -857.255185 0.000005 -0.000009 -10.446707 -5.353325 -17.901986 -19.248605 0.000005 0.000012 -12.218915 -13.007969 -0.653080 23.321999 2.346704 0.301803 -2.502798 73.972875 -43.725198 21.211976 0.000000 -0.000002 -20.596996 -78.277301 59.624293 56.731329 -0.000002 0.000003 -17.157503 4.309135 44.864016 33.689082 -1.908596 -0.007896 -2.706004 -421.072146 -36.252407 -15.606601 -0.000001 -0.000010 -20.198500 28.170528 48.615357 -0.665154 0.000000 0.000000 -17.295708 359.449579 34.737260 -151.733008
-44.551796 2.699509 53.108395 1432.884950 4.760799 -0.878752 -0.825502 0.895801 5.069499 8.090704 0.260247 -13.139764 -0.000001 0.000002 4.622198 7.732009 -2.231521 0.002802 -0.000006 0.000001 10.755795 5.857371 -8.640894 34.014728 -0.000002 -0.000001 2.173916 -11.099986 1.471728 -12.445121 2.539394 -1.380901 6.760990 -2.380906 4.448058 24.205142 5.406994 0.000002 -0.000003 -65.498406 -44.548519 208.852923 -0.000005 -0.000007 -10.686999 781.915084 -8.291404 5.473776 0.000004 0.000002 -13.346891 187.622223 372.442975 27.451497 -2.411412 -2.842699 7.518589 205.141358 171.475055 -29.608713 -4.245500 -0.000009 0.000008 -645.334414 -188.101989 -855.408029 -0.000004 -0.000011 -10.446706 -6.231176 -17.142754 -18.774826 0.000003 -0.000006 -12.218893 -14.018765 -0.273775 24.766131 2.346702 0.301801 -2.502802 64.078403 -42.217307 15.855294 -0.000000 -0.000001 -20.596998 -64.837784 59.249528 46.411836 0.000005 0.000001 -17.157501 5.370997 42.071175 27.487097 -1.908595 -0.007897 -2.705999 -413.858456 -34.853789 -12.045886 0.000000 -0.000013 -20.198502 23.813033 46.097971 0.412998 -0.000001 -0.000002 -17.295710 370.011783 29.277094 -138.333037
-44.729397 2.329408 51.455997 1432.997074 4.802636 -0.748948 -0.825496 0.895799 5.069503 7.908513 -0.434823 -13.837893 0.000002 0.000002 4.622206 8.257208 -2.096040 -0.073757 0.000005 0.000003 10.755795 5.434688 -8.581006 34.675566 -0.000005 0.000001 2.173894 -11.231021 1.608931 -12.713546 2.539397 -1.380899 6.760992 -3.777280 4.723363 24.970002 5.406989 -0.000000 0.000006 -61.888877 -46.753478 211.747899 -0.000003 -0.000010 -10.687001 783.580065 -8.008133 4.701520 0.000000 0.000002 -13.346899 190.161359 371.734029 28.391877 -2.411401 -2.842700 7.518583 204.148289 170.473476 -29.018469 -4.245503 -0.000005 0.000004 -647.684764 -189.672386 -853.531366 0.000005 -0.000008 -10.446696 -7.254562 -16.876829 -18.638096 0.000006 0.000003 -12.218895 -15.141416 0.226052 26.563856 2.346693 0.301798 -2.502795 57.661618 -40.743400 13.008977 -0.000003 0.000004 -20.596992 -57.441126 58.451386 40.959603 -0.000001 0.000002 -17.157497 6.955417 38.199025 24.068892 -1.908599 -0.007900 -2.705996 -409.563250 -33.922227 -10.251673 0.000004 -0.000007 -20.198498 21.255873 45.422363 0.287825 -0.000004 -0.000004 -17.295702 386.952428 52.228404 -56.771873
-44.893097 1.977308 49.688103 1432.717747 5.227194 -0.645805 -0.825500 0.895801 5.069505 8.094388 -1.560712 -14.436517 -0.000006 0.000001 4.622198 8.646371 -1.924527 -0.144536 -0.000001 0.000005 10.755816 5.215722 -8.563296 35.316723 0.000005 -0.000002 2.173886 -11.475504 1.625482 -12.908561 2.539398 -1.380899 6.761005 -5.041341 5.003570 25.726032 5.406994 0.000001 0.000002 -58.025722 -48.668902 214.770736 -0.000000 -0.000006 -10.686996 785.159314 -7.826827 4.133544 0.000001 0.000008 -13.346893 192.911877 371.405005 30.591926 -2.411405 -2.842698 7.518607 203.093011 169.379566 -28.350218 -4.245504 -0.000004 -0.000002 -650.362417 -191.055035 -851.524274 -0.000001 -0.000000 -10.446698 -8.262419 -16.674362 -18.848351 0.000002 0.000001 -12.218906 -15.942457 0.474706 28.589294 2.346694 0.301806 -2.502795 54.364372 -39.909379 12.162365 -0.000005 0.000003 -20.597000 -56.022240 57.910401 40.389647 0.000005 0.000001 -17.157503 9.484631 33.372011 22.342442 -1.908600 -0.007898 -2.705996 -408.115933 -33.765610 -10.222141 0.000002 -0.000005 -20.198498 21.471977 46.686918 -1.276363 0.000003 -0.000005 -17.295704 370.802828 51.526551 -19.003816
-45.035000 1.674710 47.838291 1432.024018 6.096041 -0.575313 -0.825494 0.895801 5.069498 8.718906 -2.977699 -14.946844 0.000001 0.000001 4.622195 8.906163 -1.742550 -0.196426 -0.000003 0.000004 10.755814 5.208671 -8.862859 36.189607 -0.000001 0.000000 2.173902 -11.700502 1.647541 -13.123561 2.539396 -1.380898 6.761008 -6.150148 5.305979 26.490428 5.406998 -0.000000 -0.000010 -54.323855 -50.517599 217.633569 0.000001 -0.000011 -10.686999 786.512730 -7.739310 3.805004 0.000011 0.000002 -13.346896 194.888643 371.252747 33.535833 -2.411405 -2.842698 7.518609 201.971795 168.173915 -27.491721 -4.245502 -0.000007 -0.000003 -653.300819 -192.204037 -849.299435 0.000000 0.000004 -10.446699 -9.205617 -16.648065 -19.290686 0.000005 -0.000001 -12.218899 -16.766497 0.274435 30.556921 2.346699 0.301806 -2.502797 53.520867 -39.998749 12.950964 -0.000000 0.000002 -20.596996 -60.015035 57.714750 44.423315 -0.000004 0.000001 -17.157499 13.790102 27.661414 20.284122 -1.908598 -0.007899 -2.706006 -409.773948 -34.567041 -12.359576 0.000002 -0.000004 -20.198496 25.414627 50.079353 -4.327770 -0.000002 -0.000005 -17.295700 361.323591 41.958924 -4.506351
-45.148296 1.439107 45.954193 1430.990966 7.276020 -0.505793 -0.825504 0.895802 5.069504 9.746017 -4.413106 -15.428182 0.000002 0.000002 4.622198 9.039659 -1.616765 -0.025314 0.000005 0.000002 10.755805 5.440290 -9.530951 37.161898 -0.000004 0.000000 2.173901 -11.937833 1.536100 -13.356527 2.539403 -1.380900 6.761008 -6.986747 5.682523 27.056580 5.406987 0.000001 0.000001 -50.619908 -52.245172 220.553570 -0.000001 -0.000005 -10.686994 788.001110 -7.646095 3.450279 -0.000005 0.000003 -13.346892 196.447592 371.325311 36.191526 -2.411397 -2.842700 7.518605 201.355220 166.952021 -26.711338 -4.245493 -0.000005 0.000006 -656.053330 -193.173896 -846.528291 -0.000003 -0.000000 -10.446707 -9.862000 -16.928438 -19.795434 0.000003 -0.000003 -12.218892 -17.603175 0.003580 31.908393 2.346694 0.301804 -2.502795 55.721947 -40.887927 15.609566 -0.000002 -0.000003 -20.596994 -69.782042 57.244895 52.976156 -0.000000 0.000001 -17.157499 19.441020 20.491073 20.188023 -1.908604 -0.007898 -2.705995 -414.997977 -35.986426 -17.217650 0.000007 -0.000006 -20.198503 34.187737 55.469766 -9.549517 -0.000004 -0.000003 -17.295704 354.698117 30.615394 3.332884
